<svg width="120" height="30" viewBox="0 0 120 30" fill="none" xmlns="http://www.w3.org/2000/svg">
  <path d="M12.5 5H5V25H12.5C19.5 25 22.5 21 22.5 15C22.5 9 19.5 5 12.5 5Z" fill="#4F46E5"/>
  <path d="M5 5H12.5L5 25V5Z" fill="#818CF8"/>
  <path d="M32.336 20V10.4H35.92C37.1733 10.4 38.1333 10.7467 38.8 11.44C39.4667 12.1333 39.8 13.0667 39.8 14.24C39.8 15.4133 39.4667 16.3467 38.8 17.04C38.1333 17.7333 37.1733 18.08 35.92 18.08H34.256V20H32.336ZM34.256 16.4H35.92C36.5333 16.4 37 16.2267 37.32 15.88C37.64 15.5333 37.8 14.9867 37.8 14.24C37.8 13.4933 37.64 12.9467 37.32 12.6C37 12.2533 36.5333 12.08 35.92 12.08H34.256V16.4ZM45.4703 20.16C44.5236 20.16 43.7103 19.9333 43.0303 19.48C42.3503 19.0267 41.8303 18.4 41.4703 17.6C41.1236 16.8 40.9503 15.8933 40.9503 14.88C40.9503 13.8667 41.1236 12.96 41.4703 12.16C41.8303 11.36 42.3503 10.7333 43.0303 10.28C43.7103 9.82667 44.5236 9.6 45.4703 9.6C46.417 9.6 47.2303 9.82667 47.9103 10.28C48.5903 10.7333 49.1036 11.36 49.4503 12.16C49.8103 12.96 49.9903 13.8667 49.9903 14.88C49.9903 15.8933 49.8103 16.8 49.4503 17.6C49.1036 18.4 48.5903 19.0267 47.9103 19.48C47.2303 19.9333 46.417 20.16 45.4703 20.16ZM45.4703 18.4C46.1903 18.4 46.7503 18.1067 47.1503 17.52C47.5503 16.9333 47.7503 16.0667 47.7503 14.92C47.7503 13.7733 47.5503 12.9067 47.1503 12.32C46.7503 11.7333 46.1903 11.44 45.4703 11.44C44.7503 11.44 44.1903 11.7333 43.7903 12.32C43.3903 12.9067 43.1903 13.7733 43.1903 14.92C43.1903 16.0667 43.3903 16.9333 43.7903 17.52C44.1903 18.1067 44.7503 18.4 45.4703 18.4ZM56.6672 20L54.3872 15.76H53.5472V20H51.6272V10.4H55.5472C56.7739 10.4 57.7072 10.7067 58.3472 11.32C58.9872 11.9333 59.3072 12.7467 59.3072 13.76C59.3072 14.5867 59.0939 15.2667 58.6672 15.8C58.2539 16.3333 57.6539 16.6933 56.8672 16.88L59.3872 20H56.6672ZM53.5472 14.24H55.5472C56.1339 14.24 56.5739 14.0933 56.8672 13.8C57.1605 13.5067 57.3072 13.0933 57.3072 12.56C57.3072 12.0267 57.1605 11.6133 56.8672 11.32C56.5739 11.0267 56.1339 10.88 55.5472 10.88H53.5472V14.24ZM65.3644 20.16C64.4177 20.16 63.6044 19.9333 62.9244 19.48C62.2444 19.0267 61.7244 18.4 61.3644 17.6C61.0177 16.8 60.8444 15.8933 60.8444 14.88C60.8444 13.8667 61.0177 12.96 61.3644 12.16C61.7244 11.36 62.2444 10.7333 62.9244 10.28C63.6044 9.82667 64.4177 9.6 65.3644 9.6C66.311 9.6 67.1244 9.82667 67.8044 10.28C68.4844 10.7333 68.9977 11.36 69.3444 12.16C69.7044 12.96 69.8844 13.8667 69.8844 14.88C69.8844 15.8933 69.7044 16.8 69.3444 17.6C68.9977 18.4 68.4844 19.0267 67.8044 19.48C67.1244 19.9333 66.311 20.16 65.3644 20.16ZM65.3644 18.4C66.0844 18.4 66.6444 18.1067 67.0444 17.52C67.4444 16.9333 67.6444 16.0667 67.6444 14.92C67.6444 13.7733 67.4444 12.9067 67.0444 12.32C66.6444 11.7333 66.0844 11.44 65.3644 11.44C64.6444 11.44 64.0844 11.7333 63.6844 12.32C63.2844 12.9067 63.0844 13.7733 63.0844 14.92C63.0844 16.0667 63.2844 16.9333 63.6844 17.52C64.0844 18.1067 64.6444 18.4 65.3644 18.4ZM76.5613 20.16C75.6146 20.16 74.8013 19.9333 74.1213 19.48C73.4413 19.0267 72.9213 18.4 72.5613 17.6C72.2146 16.8 72.0413 15.8933 72.0413 14.88C72.0413 13.8667 72.2146 12.96 72.5613 12.16C72.9213 11.36 73.4413 10.7333 74.1213 10.28C74.8013 9.82667 75.6146 9.6 76.5613 9.6C77.508 9.6 78.3213 9.82667 79.0013 10.28C79.6813 10.7333 80.1946 11.36 80.5413 12.16C80.9013 12.96 81.0813 13.8667 81.0813 14.88C81.0813 15.8933 80.9013 16.8 80.5413 17.6C80.1946 18.4 79.6813 19.0267 79.0013 19.48C78.3213 19.9333 77.508 20.16 76.5613 20.16ZM76.5613 18.4C77.2813 18.4 77.8413 18.1067 78.2413 17.52C78.6413 16.9333 78.8413 16.0667 78.8413 14.92C78.8413 13.7733 78.6413 12.9067 78.2413 12.32C77.8413 11.7333 77.2813 11.44 76.5613 11.44C75.8413 11.44 75.2813 11.7333 74.8813 12.32C74.4813 12.9067 74.2813 13.7733 74.2813 14.92C74.2813 16.0667 74.4813 16.9333 74.8813 17.52C75.2813 18.1067 75.8413 18.4 76.5613 18.4ZM87.7582 20.16C86.8115 20.16 85.9982 19.9333 85.3182 19.48C84.6382 19.0267 84.1182 18.4 83.7582 17.6C83.4115 16.8 83.2382 15.8933 83.2382 14.88C83.2382 13.8667 83.4115 12.96 83.7582 12.16C84.1182 11.36 84.6382 10.7333 85.3182 10.28C85.9982 9.82667 86.8115 9.6 87.7582 9.6C88.7048 9.6 89.5182 9.82667 90.1982 10.28C90.8782 10.7333 91.3915 11.36 91.7382 12.16C92.0982 12.96 92.2782 13.8667 92.2782 14.88C92.2782 15.8933 92.0982 16.8 91.7382 17.6C91.3915 18.4 90.8782 19.0267 90.1982 19.48C89.5182 19.9333 88.7048 20.16 87.7582 20.16ZM87.7582 18.4C88.4782 18.4 89.0382 18.1067 89.4382 17.52C89.8382 16.9333 90.0382 16.0667 90.0382 14.92C90.0382 13.7733 89.8382 12.9067 89.4382 12.32C89.0382 11.7333 88.4782 11.44 87.7582 11.44C87.0382 11.44 86.4782 11.7333 86.0782 12.32C85.6782 12.9067 85.4782 13.7733 85.4782 14.92C85.4782 16.0667 85.6782 16.9333 86.0782 17.52C86.4782 18.1067 87.0382 18.4 87.7582 18.4ZM93.9551 20V10.4H97.7551C99.0084 10.4 99.9684 10.7067 100.635 11.32C101.302 11.9333 101.635 12.7467 101.635 13.76C101.635 14.7733 101.302 15.5867 100.635 16.2C99.9684 16.8133 99.0084 17.12 97.7551 17.12H95.8751V20H93.9551ZM95.8751 15.44H97.7551C98.3418 15.44 98.7818 15.2933 99.0751 15C99.3684 14.7067 99.5151 14.2933 99.5151 13.76C99.5151 13.2267 99.3684 12.8133 99.0751 12.52C98.7818 12.2267 98.3418 12.08 97.7551 12.08H95.8751V15.44Z" fill="#4F46E5"/>
</svg>